<svg width="72" height="72" viewBox="0 0 72 72" fill="none" xmlns="http://www.w3.org/2000/svg">
<g clip-path="url(#clip0_2679_29259)">
<mask id="mask0_2679_29259" style="mask-type:luminance" maskUnits="userSpaceOnUse" x="0" y="0" width="72" height="72">
<path d="M72 0H0V72H72V0Z" fill="white"/>
</mask>
<g mask="url(#mask0_2679_29259)">
<mask id="mask1_2679_29259" style="mask-type:luminance" maskUnits="userSpaceOnUse" x="-1" y="-1" width="74" height="74">
<path d="M-0.25 -0.25H72.25V72.25H-0.25V-0.25Z" fill="white"/>
</mask>
<g mask="url(#mask1_2679_29259)">
<path d="M15.7976 35.2633C9.82785 35.726 5.12802 40.7168 5.12802 46.8051C5.12802 53.1989 10.3112 58.3821 16.705 58.3821H34.7137H36H52.7224C60.537 58.3821 66.872 52.0472 66.872 44.2325C66.872 36.4178 60.537 30.0829 52.7224 30.0829C52.412 30.0829 52.104 30.0927 51.7988 30.1125C48.5688 23.9761 42.1299 19.7921 34.7137 19.7921C25.3666 19.7921 17.5718 26.4386 15.7976 35.2633Z" fill="url(#paint0_linear_2679_29259)"/>
<path d="M16.705 35.2281C10.3112 35.2281 5.12802 40.4113 5.12802 46.8051C5.12802 53.199 10.3112 58.3821 16.705 58.3821H36V50.6641C36 42.1391 29.0891 35.2281 20.564 35.2281H16.705Z" fill="url(#paint1_radial_2679_29259)"/>
<path d="M15.4188 39.0871C15.4188 49.7435 24.0574 58.3821 34.7137 58.3821C45.3699 58.3821 54.0086 49.7435 54.0086 39.0871C54.0086 28.4308 45.3699 19.7921 34.7137 19.7921C24.0574 19.7921 15.4188 28.4308 15.4188 39.0871Z" fill="url(#paint2_radial_2679_29259)"/>
<path d="M38.5728 44.2325C38.5728 52.0472 44.9077 58.3821 52.7224 58.3821C60.5371 58.3821 66.872 52.0472 66.872 44.2325C66.872 36.4179 60.5371 30.0829 52.7224 30.0829C44.9077 30.0829 38.5728 36.4179 38.5728 44.2325Z" fill="url(#paint3_radial_2679_29259)"/>
</g>
</g>
</g>
<defs>
<linearGradient id="paint0_linear_2679_29259" x1="36" y1="19.8278" x2="36.1505" y2="57.399" gradientUnits="userSpaceOnUse">
<stop stop-color="#AFCEFA"/>
<stop offset="0.39" stop-color="#B1D0F9"/>
<stop offset="0.78" stop-color="#B4D2F9"/>
<stop offset="0.89" stop-color="#90B4EE"/>
<stop offset="1" stop-color="#6C95E3"/>
</linearGradient>
<radialGradient id="paint1_radial_2679_29259" cx="0" cy="0" r="1" gradientUnits="userSpaceOnUse" gradientTransform="translate(25.1465 59.4859) scale(27.1223)">
<stop offset="0.69" stop-color="#8FABDD" stop-opacity="0"/>
<stop offset="0.84" stop-color="#7296D8" stop-opacity="0.5"/>
<stop offset="1" stop-color="#5582D3"/>
</radialGradient>
<radialGradient id="paint2_radial_2679_29259" cx="0" cy="0" r="1" gradientUnits="userSpaceOnUse" gradientTransform="translate(35.3469 55.5554) scale(35.8639 35.8639)">
<stop offset="0.6" stop-color="#C7DFFF" stop-opacity="0"/>
<stop offset="0.8" stop-color="#8FB0EC" stop-opacity="0.5"/>
<stop offset="1" stop-color="#5782DA"/>
</radialGradient>
<radialGradient id="paint3_radial_2679_29259" cx="0" cy="0" r="1" gradientUnits="userSpaceOnUse" gradientTransform="translate(44.5904 55.7657) scale(28.2885)">
<stop offset="0.48" stop-color="#8FABDD" stop-opacity="0"/>
<stop offset="0.74" stop-color="#7396DC" stop-opacity="0.5"/>
<stop offset="1" stop-color="#5782DA"/>
</radialGradient>
<clipPath id="clip0_2679_29259">
<rect width="72" height="72" fill="white"/>
</clipPath>
</defs>
</svg>
